<svg width="16" height="16" viewBox="0 0 16 16" fill="none" xmlns="http://www.w3.org/2000/svg">
<path fill-rule="evenodd" clip-rule="evenodd" d="M9.67178 5.50022C9.17843 5.17058 8.59841 4.99463 8.00507 4.99463C7.20942 4.99463 6.44635 5.3107 5.88375 5.87331C5.32114 6.43592 5.00507 7.19898 5.00507 7.99463C5.00507 8.58797 5.18101 9.16799 5.51066 9.66134C5.8403 10.1547 6.30884 10.5392 6.85702 10.7663C7.40519 10.9933 8.00839 11.0527 8.59034 10.937C9.17228 10.8212 9.70683 10.5355 10.1264 10.1159C10.5459 9.69639 10.8317 9.16184 10.9474 8.5799C11.0632 7.99796 11.0038 7.39476 10.7767 6.84658C10.5496 6.2984 10.1651 5.82986 9.67178 5.50022ZM7.1736 8.5502C7.06371 8.38575 7.00507 8.19241 7.00507 7.99463C7.00507 7.72941 7.11042 7.47506 7.29796 7.28752C7.4855 7.09999 7.73985 6.99463 8.00507 6.99463C8.20285 6.99463 8.39619 7.05328 8.56064 7.16316C8.72508 7.27304 8.85326 7.42922 8.92895 7.61195C9.00463 7.79467 9.02444 7.99574 8.98585 8.18972C8.94727 8.3837 8.85203 8.56188 8.71217 8.70174C8.57232 8.84159 8.39414 8.93683 8.20016 8.97541C8.00618 9.014 7.80511 8.9942 7.62238 8.91851C7.43966 8.84282 7.28348 8.71465 7.1736 8.5502Z" fill="#333333"/>
<path fill-rule="evenodd" clip-rule="evenodd" d="M7.02511 0.0547045H9.02511C9.19769 0.0536994 9.3676 0.0973773 9.5183 0.18149C9.669 0.265602 9.79537 0.387286 9.88511 0.534704L10.7351 1.9547C10.8248 2.10212 10.9512 2.22381 11.1019 2.30792C11.2526 2.39203 11.4225 2.43571 11.5951 2.4347H13.7851C13.9596 2.43576 14.1308 2.48246 14.2817 2.57018C14.4326 2.65789 14.5579 2.78357 14.6451 2.9347L15.7051 4.8547C15.7929 5.00672 15.8391 5.17917 15.8391 5.3547C15.8391 5.53024 15.7929 5.70269 15.7051 5.8547L14.7051 7.5447C14.6173 7.69672 14.5711 7.86917 14.5711 8.0447C14.5711 8.22024 14.6173 8.39268 14.7051 8.5447L15.7051 10.2347C15.7929 10.3867 15.8391 10.5592 15.8391 10.7347C15.8391 10.9102 15.7929 11.0827 15.7051 11.2347L14.6451 13.0747C14.5579 13.2258 14.4326 13.3515 14.2817 13.4392C14.1308 13.5269 13.9596 13.5737 13.7851 13.5747H11.5951C11.4225 13.5737 11.2526 13.6174 11.1019 13.7015C10.9512 13.7856 10.8248 13.9073 10.7351 14.0547L9.88511 15.4547C9.7966 15.604 9.67077 15.7277 9.51998 15.8136C9.3692 15.8995 9.19865 15.9447 9.02511 15.9447H7.02511C6.85156 15.9447 6.68102 15.8995 6.53023 15.8136C6.37945 15.7277 6.25361 15.604 6.16511 15.4547L5.27511 14.0347C5.18537 13.8873 5.059 13.7656 4.9083 13.6815C4.7576 13.5974 4.58769 13.5537 4.41511 13.5547H2.22511C2.05059 13.5537 1.87939 13.5069 1.72852 13.4192C1.57765 13.3315 1.45236 13.2058 1.36511 13.0547L0.295107 11.1547C0.207339 11.0027 0.161133 10.8302 0.161133 10.6547C0.161133 10.4792 0.207339 10.3067 0.295107 10.1547L1.29511 8.4647C1.38288 8.31269 1.42908 8.14024 1.42908 7.9647C1.42908 7.78917 1.38288 7.61672 1.29511 7.4647L0.295107 5.7747C0.207339 5.62269 0.161133 5.45024 0.161133 5.2747C0.161133 5.09917 0.207339 4.92672 0.295107 4.7747L1.36511 2.9347C1.45236 2.78357 1.57765 2.65789 1.72852 2.57018C1.87939 2.48246 2.05059 2.43576 2.22511 2.4347H4.41511C4.58769 2.43571 4.7576 2.39203 4.9083 2.30792C5.059 2.22381 5.18537 2.10212 5.27511 1.9547L6.16511 0.534704C6.25485 0.387286 6.38122 0.265602 6.53192 0.18149C6.68262 0.0973773 6.85252 0.0536994 7.02511 0.0547045ZM9.02511 2.9847L8.46511 2.0547H7.54511L6.98511 2.9847C6.71798 3.42736 6.341 3.79348 5.89071 4.04753C5.44042 4.30158 4.93212 4.43495 4.41511 4.4347H2.80511L2.62511 4.7547L2.32511 5.2647L3.03511 6.4947C3.31544 6.9613 3.46354 7.49537 3.46354 8.0397C3.46354 8.58404 3.31544 9.11811 3.03511 9.5847L2.32511 10.7747L2.61511 11.2647L2.80511 11.6047H4.41511C4.93212 11.6045 5.44042 11.7378 5.89071 11.9919C6.341 12.2459 6.71798 12.612 6.98511 13.0547L7.54511 13.9847H8.46511L9.02511 13.0547C9.28727 12.6046 9.66211 12.2305 10.1127 11.9693C10.5634 11.708 11.0742 11.5686 11.5951 11.5647H13.2051L13.3951 11.2347L13.6851 10.7347L12.9651 9.5447C12.6848 9.07811 12.5367 8.54404 12.5367 7.9997C12.5367 7.45537 12.6848 6.9213 12.9651 6.4547L13.6451 5.2647L13.3451 4.7447L13.1651 4.4347H11.5951C11.0781 4.43495 10.5698 4.30158 10.1195 4.04753C9.66922 3.79348 9.29223 3.42736 9.02511 2.9847Z" fill="#333333"/>
</svg>